<svg version="1" xmlns="http://www.w3.org/2000/svg" width="501.333" height="501.333" viewBox="0 0 376.000000 376.000000"><path d="M201.5 58.5c-2.7.8-6.8 1.7-8.9 2-2.2.3-6 1-8.5 1.6-2.5.6-6.6 1.2-9.1 1.5-2.5.3-6.1.8-8 1.3-1.9.5-4.8.9-6.5 1-1.6 0-4.1.3-5.5.6-1.4.3-4.7.8-7.5 1-2.7.3-7 .8-9.5 1.2-2.5.3-6.1.7-8 .9-10.6.9-53.9 4.2-56.5 4.3-1.6 0-7 .3-12 .6-4.9.2-9.6.5-10.2.5-.7.1-3.4 0-5.9 0-15.3-.5-17.9 18.5-7.4 54.4 6.3 21.7 22.8 63.2 37.4 94 3.1 6.5 5.6 12 5.6 12.3 0 1.5 38.3 76.9 39.9 78.6 1.1 1.1 3.8-.2 4.5-2.1.8-2.5 2.9-5.6 4.4-6.5.6-.4 1.2-1.4 1.2-2.1 0-.8.7-1.7 1.6-2 .9-.4 1.4-1.3 1-2.1-.3-.9 0-1.5.9-1.5.8 0 1.5-.5 1.5-1 0-1.8.4-2.5 2.4-4.2 1.2-1 1.8-1.7 1.4-1.8-.5 0 .1-.9 1.2-2 1.2-1.2 1.8-2.5 1.5-3-.4-.6.1-1 .9-1 .9 0 1.6-.5 1.6-1 0-2 .3-2.5 2.2-3.8 1-.7 1.6-1.8 1.3-2.3-.4-.5-.1-.9.5-.9s1.5-1.1 2-2.5 1.4-2.5 2-2.5c.5 0 1-.9 1-2s.6-1.9 1.3-1.8c1.5.4 1.4-4.9-.2-14.7-3.1-18.6-4.2-27.6-5.7-48.5-.8-11.6-1.1-36.7-.4-40.9l.5-3.4 17.6 18.4c9.7 10.1 20.2 21.3 23.5 24.9 3.2 3.6 6.8 7.4 7.9 8.6 1.1 1.1 5.4 5.8 9.5 10.4 4.1 4.6 8 8.8 8.5 9.4 1.2 1.2 32.4 36.4 36.4 41.1 1.5 1.6 8.2 9.5 15.1 17.5s13.5 15.6 14.7 16.9c1.2 1.4 4.1 4.8 6.5 7.7 2.4 2.9 5.1 5.3 6.1 5.4 4.4.1 2.6-3.4-8.9-16.7-14.9-17.4-51.5-59.3-57-65.3-2.2-2.5-6.7-7.4-10-11-3.2-3.6-9.9-11-14.9-16.4-4.9-5.5-9.8-10.8-10.8-11.9-2-2.4-26.8-28.5-37.6-39.6-4.4-4.5-7-8-6.6-8.8.3-.8.5-2.6.5-3.9 0-1.3.4-2.4.8-2.4.8 0 43.1 42.1 50.2 50 1.8 1.9 6.4 6.9 10.4 11 8 8.5 26.8 28.8 33.6 36.5 2.5 2.7 4.7 5.2 5 5.5.3.3 4.6 5 9.5 10.5s9.4 10.5 10 11.1c.5.6 1.9 2.2 3 3.5 1.2 1.3 4.3 4.9 6.9 7.9 2.7 3 7.6 8.6 11 12.4 8.2 9.3 8.7 9.7 10 9.3 3.6-1.2 1.4-4.6-13.4-21.1-5.1-5.7-4.9-5.4-13-14.6-7.6-8.6-12.5-14-17-19-1.4-1.5-4.1-4.5-6-6.6-4.8-5.3-22.9-25.2-26-28.4-1.4-1.5-9-9.6-17-18.1-7.9-8.5-23.9-24.9-35.5-36.4-20.5-20.5-21-21.1-20.7-24.8.2-2 .6-3.7 1-3.7 3 .1 61 57.4 94.7 93.5 15.9 17 17.1 18.3 21.5 23.1 1.9 2.2 5.9 6.6 9 9.9 19.2 21.1 22.6 24.9 23.3 26.1 1 1.8 3.1 1.8 4.6 0 1-1.2-1.2-4.2-12.1-16.3-7.3-8.1-15.4-17.1-17.9-19.8-2.6-2.8-5.6-6-6.6-7.1-1-1.2-7-7.7-13.3-14.4-35.2-37.7-67.7-70.1-97.8-97.6-3.8-3.5-4.2-4.2-3.6-7.2.4-1.7 1-3.2 1.3-3.2 1.2 0 23.4 19.2 41.6 36 9.2 8.6 59.3 58.6 72 72 15 15.9 31.7 33.9 34.4 37.1 2.4 2.9 5.4 3.8 6.6 1.9 1.1-1.7 2.2-.4-25.9-30.5-16.7-17.9-80.1-81.4-92.6-92.7-5.2-4.7-14.7-12.9-21-18.3-15-12.7-14-11.5-12.5-14.8l1.2-2.8 11.9 9.2c19.1 14.7 33.7 27.5 62.8 54.9 11.4 10.8 51 50.4 65.2 65.4 8.9 9.4 12.5 12.5 13.7 12 .9-.3 1.7-1.3 1.7-2 0-1.9-10.4-12.8-45.5-47.9-42.5-42.6-71.4-68.9-96.8-88-5.8-4.4-10.6-8.5-10.7-9.1 0-.5.6-1.7 1.3-2.6 1.1-1.5 1.8-1.3 6.7 2 23.3 15.4 54 40.6 84.4 69.4 3.9 3.6 8.5 7.8 10.1 9.3 1.7 1.5 13.9 13.5 27.2 26.7 23.6 23.4 27.3 26.3 27.3 21.2 0-2.2-40.4-42.3-69-68.4-5.7-5.2-11.1-10.2-12-11-13.3-12.4-44.8-37.6-59.7-47.7-6.2-4.2-11.3-7.9-11.3-8.2 0-.3.5-1.3 1-2.1.8-1.3 1.7-1.1 6.5 1.4 8.1 4.2 27.1 16.8 41.5 27.6 6.9 5.1 12.7 9.6 13 9.9.3.4 4.3 3.8 9 7.6 9.7 8 12.3 10.2 15.4 13 1.3 1.1 5.6 4.9 9.7 8.5 4.1 3.6 10.5 9.4 14.4 13 3.8 3.5 7.5 6.9 8.1 7.5.6.5 8.4 8 17.4 16.5 10.5 10 17 15.5 18.4 15.5 1.5 0 2-.5 1.8-2-.2-1.1-.8-2.2-1.2-2.5-.5-.3-6.6-6.1-13.7-13s-17.8-17-23.8-22.5-11.6-10.7-12.5-11.5c-.9-.8-4.9-4.4-9-8-4.1-3.6-7.7-6.7-8-7-.3-.3-5.9-5.1-12.5-10.6-21.1-17.5-43-33.4-60-43.4-4.9-3-9.2-5.5-9.4-5.7-.3-.2.2-1 1-1.8 2.7-2.7 31.1 13.1 56.9 31.5 10 7.2 37.1 28.2 40.6 31.5.6.5 3.7 3.2 6.9 6 3.3 2.7 8.4 7.2 11.5 10 12.3 11 23.6 21.3 28.9 26.2 6.1 5.7 6 5.7 8 4.4 2.6-1.6 2.2-2.1-26.4-28.2-16.8-15.4-50.4-42.8-67.1-54.6-14.3-10.3-31-20.6-42.7-26.4-11.8-5.9-11.1-5.5-10.3-6.8 1.3-2 23.2 6.9 41.1 16.8 22.7 12.6 66.9 45.5 95.5 71.1 8.7 7.8 12.1 10.2 13.5 9.6 2.8-1 1.5-3.3-5.7-9.7-4-3.5-7.5-6.6-7.8-7-.3-.3-7.2-6.1-15.5-13-25.6-21.3-49.6-38.7-70.6-51.5-10.9-6.6-31.1-16.5-38.9-19.1-10.6-3.5-1.1-2.6 11.9 1.2 30.3 8.7 69 32.2 116.1 70.4 12.4 10 16 11.9 16 8.2 0-2.1-15.8-15.3-38.9-32.5C270.8 99 244.9 83.1 226.3 75c-9.5-4.1-20.7-8-23-8-.7 0-1.3-.4-1.3-.8 0-.5 3-.5 6.8 0 29.8 3.9 67.2 23.1 116.5 59.5 10.5 7.9 13 9.3 14.2 8.3.8-.7 1.5-1.6 1.5-2.1 0-1.2-23.5-18.6-40-29.6-29.1-19.4-52.7-31.3-75.5-38l-8-2.3 8.1.4c25.1 1.4 60.8 16.9 102.2 44.4 13.5 9 17.2 10.4 17.2 6.8 0-1.5-13.6-11.1-31.5-22.1-21.5-13.3-47-25.2-64.3-29.9-13.4-3.7-18.2-4.4-31-4.4-7.4-.1-13.6.4-16.7 1.3zm-26.8 14.1c-.3.3-1.2.4-1.9.1-.8-.3-.5-.6.6-.6 1.1-.1 1.7.2 1.3.5zM160 74.4c0 1.1-1.9 1.5-2.5.6-.3-.5.1-1 .9-1 .9 0 1.6.2 1.6.4zM145.5 77c.3.5-.1 1-.9 1-.9 0-1.6-.5-1.6-1 0-.6.4-1 .9-1 .6 0 1.3.4 1.6 1zm23.5 1c0 1.4-1.5 1.9-2.9 1-1.7-1-.5-3.1 1.4-2.3.8.3 1.5.9 1.5 1.3zm-38.6.6c.9.3 1.4 1 1.1 1.5-.7 1-3.5 0-3.5-1.2 0-1.1.3-1.1 2.4-.3zm23.9 1c.3.3.3 1.2 0 2-.4 1-1 1.1-2.4.3-1.1-.5-1.7-1.4-1.4-2 .7-1 2.8-1.2 3.8-.3zM46 80.4c0 .2-.7 2.1-1.6 4.2-1.2 2.7-1.6 6.7-1.6 13.4.1 13.7 3.5 29.1 12.2 56 3.9 12.3 15.8 42.6 24.2 61.9 9.9 22.8 11 25.5 7.7 19.6-7.8-14.1-32.2-71.8-39.7-94-11.2-33.1-13.7-55.2-6.9-60 1.9-1.3 5.7-2.1 5.7-1.1zm36 .6c0 .5-.7.7-1.5.4-.8-.4-1.5-.8-1.5-1 0-.2.7-.4 1.5-.4s1.5.4 1.5 1zm36 0c0 .5-.9 1-2 1s-2-.5-2-1c0-.6.9-1 2-1s2 .4 2 1zm-63 1c1.8 1 1.8 1.3.4 5.3-1.6 4.6-2.2 18.4-1 25.7.4 2.5 1 5.8 1.2 7.5.8 4.5 4.2 19.5 5.4 23.5.6 1.9 1.3 4.6 1.6 5.9.3 1.3 1.1 3.9 1.9 5.7.8 1.9 1.2 3.4 1 3.4-.4 0 4.3 13.6 11.5 33.5 2.3 6.5 8.7 22.6 13.4 33.9 2.1 4.8 3.6 9 3.4 9.2-.4.4-2.6-4.5-14-31.6-10-23.7-22.6-57.6-24.3-65-.2-.8-1.2-4.9-2.4-9-5.8-21.5-6.9-37.5-3.2-44.9 2.3-4.5 2.4-4.5 5.1-3.1zm14 0c0 1.3-1.1 1.3-3 0-1.2-.8-1.1-1 .8-1 1.2 0 2.2.4 2.2 1zm35.5 2.1c-.4.5-1.4.5-2.6-.1-1.1-.6-1.7-1.5-1.4-2.1.4-.5 1.4-.5 2.6.1 1.1.6 1.7 1.5 1.4 2.1zm35.4-2.2c1.3.8.8 3.1-.7 3.1-1.7-.1-3.4-1.9-2.8-2.9.9-1.3 1.6-1.4 3.5-.2zM164 85c0 1.5-1.9 2.2-4 1.5-1.6-.5-1.8-1-1-2.6.9-1.5 1.5-1.7 3-.9 1.1.6 2 1.5 2 2zm-73.1-1.1c2.4 1.5.3 3.2-2.4 1.9-1.3-.6-2.2-1.5-1.9-1.9.7-1.1 2.5-1.1 4.3 0zm35 0c.8.5 1.1 1.6.8 2.5-.5 1.4-1.1 1.5-2.7.6-2.1-1.1-2.5-2.2-1.3-3.3.8-.9 1.5-.9 3.2.2zm-47.3 2.3c.4.5.2 1.4-.3 1.9-1 1-5.6-1.8-4.8-3.1.6-1 4.3-.1 5.1 1.2zm35.4 1.3c0 .2-.3 1-.6 1.9-.5 1.4-.8 1.4-3-.1-1.9-1.2-2.2-1.9-1.3-2.9.8-1 1.6-1.1 3-.3 1 .5 1.9 1.1 1.9 1.4zm36 0c0 .2-.3 1-.6 1.9-.5 1.2-1 1.3-3 .4-2.7-1.3-2.9-1.9-1.2-3.6.7-.7 1.7-.8 3-.1 1 .5 1.8 1.1 1.8 1.4zm-85.1-.3c1.5.9 1.7 1.7 1 4.2-.9 3.1-1.3 20.4-.5 26.1 3.6 27.7 15.2 67.7 31.5 108.4 2.3 5.7 4 10.5 3.8 10.7-.2.3-1.3-1.9-2.5-4.8-1.1-2.9-5.3-13.2-9.2-22.8-12.9-31.8-23.8-65.9-27.9-87.7-2.2-11.2-2.7-25.5-1.1-31.2 1.1-4.3 1.9-4.8 4.9-2.9zm36.1 3.4c0 2.2-2 2.7-4 .9-2.7-2.4-1.6-4.7 1.6-3.3 1.3.6 2.4 1.7 2.4 2.4zm34.3-1.3c1.5 1 1.6 1.5.5 3-1.2 1.5-1.6 1.6-3.2.4-1.2-.9-1.7-2-1.3-3.1.8-1.9 1.7-2 4-.3zm-46.8 4.4c-.2 1-.4 2.2-.4 2.6-.2 1.9-5-3-5.1-5.1 0-2.2.1-2.2 2.9-.7 1.9.9 2.8 2.1 2.6 3.2zm34.8 1.3c-.6 2.4-1.2 2.5-4.1.4-1.8-1.2-2-1.9-1.2-3.5 1-1.8 1.2-1.8 3.4-.4 1.6 1.1 2.2 2.2 1.9 3.5zm34.6-4.1c1 .6 1.1 1.6.4 3.6l-.9 2.7-2.4-2c-2.1-1.7-2.2-2.2-1.1-3.6 1.5-1.8 2.1-1.9 4-.7zm-83.6 2.6c2.1 1.3 2.2 2 1.7 7.7-.7 6.7-.5 16.3.5 23.8.4 2.5.9 6.1 1.1 8 .9 6.9 3.6 19.6 5.5 26.8 1.1 4 2.2 8.2 2.4 9.2 1.4 7.2 13.3 44.6 18.9 59.4 1.4 3.8 2.5 7.1 2.2 7.3-.6.7-21.9-57-23.1-62.8-.2-.8-1.7-6.2-3.4-12-1.7-5.7-3.3-11.3-3.5-12.4-6-27.9-5.7-25.6-6.3-39.7-.5-10.8 0-16.8 1.3-16.8.2 0 1.5.7 2.7 1.5zm35 1.3c1 1 1.4 2.7 1.1 3.9-.6 2.1-.7 2.1-3 .6s-3.1-4.2-1.7-5.6c1-1.1 1.9-.8 3.6 1.1zm34.9-.4c1.9 1.4 1.4 5.6-.7 5.6-2 0-3.7-2.7-3-5 .7-2.3 1.3-2.4 3.7-.6zm-47.5 3.5c1.5 1.2 2 2.5 1.6 4-.6 2.4-1.1 2.5-3.5.8-1.6-1.3-2.2-2.9-1.9-5.5.1-1.7 1.2-1.5 3.8.7zm35.7.9c.6 1-.4 5.2-1.3 5.2-.3 0-1.4-.7-2.5-1.5-1.3-1-1.7-2.1-1.2-4 .5-2.1.9-2.4 2.6-1.5 1 .5 2.1 1.4 2.4 1.8zm-47.9 2c1.8 1.5 2 3 2 13.2.1 10.7.8 21.3 2 28.5 3.6 21 10.8 50.1 17.5 71 4.9 15 5.5 17.2 4.8 16.5-.9-.8-10.6-28.9-14.9-43.2-4.3-14.3-9.4-33.4-10.3-38.9-.3-1.9-.8-4.5-1.1-5.9-3.1-13.1-5-43.1-2.7-43 .4.1 1.6.8 2.7 1.8zm68.8-.4c1.3 1 1.6 2.1 1.1 4-.7 3-1.3 3.1-3.9 1.3-1.3-1-1.6-2.1-1.1-4 .7-3 1.3-3.2 3.9-1.3zm-35.2.6c1.3.8 1.9 2 1.7 4-.3 3.5-.8 3.6-3.7 1.2-1.5-1.2-1.9-2.4-1.5-4 .7-2.5.8-2.6 3.5-1.2zm-11 4.7c1 .8 1.4 2.4 1.1 4.3-.5 3.5-.9 3.6-3.7 1-1.5-1.5-2-2.9-1.7-5 .4-3 1.1-3.1 4.3-.3zm33.2-1.3c1.3 1 1.5 2.1 1.1 4.5-.8 3.7-.8 3.7-3.5 1-1.4-1.4-1.9-2.8-1.5-4.5.7-2.7 1.4-2.9 3.9-1zm-43.4 17.4c0 9.9.5 18.2 1.6 24.2.2 1.4.7 5 1 8 1.4 12.1 9.8 48.4 15.5 67 2.7 9 2.4 10-.6 1.5-9.1-26.7-18.3-62.8-20.9-82-.4-2.8-.9-6.1-1.1-7.5-.8-5-1.4-22.4-.8-24.2.6-1.9.7-1.9 2.9.2 2.2 2 2.3 3 2.4 12.8zm31.5-12.9c1.2 1.3 1.5 2.7 1 4.5-.7 3-1.6 3.2-3.8 1-1.7-1.6-2-3.3-1-5.8.8-2.1 1.7-2 3.8.3zm21 2.4c1.4 1 1.7 2.1 1.1 4.5-.8 3.7-1.5 3.9-3.9 1.3-1.2-1.3-1.5-2.7-1-4.5.7-3 1.3-3.1 3.8-1.3zm-31.6 6.6c.3 4 .2 4.2-1.8 3.1-2.5-1.4-3.8-4.5-3.2-7.7.4-2.2.6-2.3 2.6-1 1.5 1 2.2 2.7 2.4 5.6zm20.7-.9c.3.5.3 2.6-.1 4.6l-.7 3.6-2.2-2.4c-1.8-1.7-2.2-3.1-1.8-5.5.4-2.8.8-3.1 2.4-2.3 1 .6 2.1 1.5 2.4 2zM107 128.5c.2 18.5 3.5 46.5 7 60.5.5 1.9 1.2 5.1 1.5 7 .3 1.9.8 4.3 1.1 5.2.3.9.6 2.5.8 3.5.2 1 1.5 6.3 3 11.8 1.4 5.5 2.8 11.1 3.1 12.5l.6 2.5-1.1-2.5c-4-9.1-16.5-60.8-18.6-76.5-.3-2.8-.8-5.9-1-7-.3-1.1-.7-8.3-1.1-15.9l-.6-13.9 2.6 1.9c2.5 1.8 2.6 2.4 2.7 10.9zm20.3-1.2l-.6 3.8-2.3-2.1c-1.6-1.6-2.1-3.1-1.9-5.3.2-1.8.4-3.6.4-4.2.1-.5 1.2.2 2.6 1.5 2.1 2.1 2.4 3.1 1.8 6.3zm20.2 1.7c-.4 1.9-.9 3.7-1.1 3.9-1 1-3.8-4.6-3.5-6.9.5-3.8 1.1-4.3 3.3-2.3 1.5 1.4 1.8 2.5 1.3 5.3zm-30.6 12.4c.1 6.6.3 13 .5 14.1.2 1.1.7 5.6 1.1 10 .9 10.8 1.2 13.1 5.1 36 .3 1.6 1.6 7.9 2.9 13.9 1.4 6 2.3 11.1 2.2 11.3-1.1 1-11.9-47-13.2-58.2-.3-2.7-1.8-13.2-2.1-15-.2-1.1-.7-8.1-1-15.5l-.6-13.5 2.5 2.4c2.5 2.3 2.6 2.8 2.6 14.5zm18.5-11.5c1.3 1.4 1.5 2.8 1 6l-.7 4.1-1.8-2.1c-1.9-2.2-2.7-9.9-1.1-9.9.5 0 1.6.8 2.6 1.9zm-8.9 24.2c.4 15.2.8 21.9 2 30.9.2 1.9.7 6 1 9 .7 5.8 4 26.2 5.1 30.8.4 1.5.4 2.4 0 2.1-.7-.7-6.5-28.2-7.2-34.4-.3-2.2-.7-4.6-.9-5.3-1.2-3.2-3.6-26.9-4.1-39.7l-.6-14 2.2 2.1c2.1 2 2.2 3.2 2.5 18.5zm18.5-14.6c.4 1.2.5 3.7.1 5.5-.6 3.2-.7 3.2-2.4 1.5-2.2-2.2-2.2-10.6.1-9.8.7.3 1.7 1.6 2.2 2.8zm-9.5 27.6c.3 19.1.7 24.9 2.1 35.8.3 2.4.8 6.5 1 9 .3 2.5.7 5.5 1 6.6.4 1.5.3 1.7-.4.5-.8-1.2-2.2-8.3-2.7-13.5-.1-.6-.5-3-.9-5.5-1.2-7.2-1.5-9.1-2.1-16.5-.4-3.9-.8-8.2-1.1-9.6-.2-1.4-.6-9.1-.9-17l-.5-14.3 2 2c1.9 1.9 2.1 3.5 2.5 22.5zm8.1 8.2c0 11.7.4 26.4.8 32.7.9 12.8.2 14.9-.9 2.7-.3-4.3-.8-8.8-1-10-1.5-9.3-2.9-46.3-1.8-48 .3-.5 1-.4 1.7.3s1.1 7.9 1.2 22.3zm-3.9 47.9c-.3.8-.6.5-.6-.6-.1-1.1.2-1.7.5-1.3.3.3.4 1.2.1 1.9zm6 1c-.3.8-.6.5-.6-.6-.1-1.1.2-1.7.5-1.3.3.3.4 1.2.1 1.9zm-16 7c-.3.8-.6.5-.6-.6-.1-1.1.2-1.7.5-1.3.3.3.4 1.2.1 1.9zm-10.7 2.3c0 .5-.5.3-1-.5s-1-2-1-2.5c0-.6.5-.3 1 .5s1 1.9 1 2.5zm-6 1c0 .5-.5.3-1-.5s-1-2-1-2.5c0-.6.5-.3 1 .5s1 1.9 1 2.5zm-17.2 5c-.3.3-.9-.2-1.2-1.2-.6-1.4-.5-1.5.5-.6.7.7 1 1.5.7 1.8zm6.6.1c.3.8.2 1.2-.4.9-.6-.3-1-1-1-1.6 0-1.4.7-1.1 1.4.7zM90.9 243c1.1 2.4 1.1 2.4-.3.6-.9-1.1-1.6-2.4-1.6-3 0-1.2.5-.7 1.9 2.4zm8.1 3.5c0 .5-.5.3-1-.5s-1-2-1-2.5c0-.6.5-.3 1 .5s1 1.9 1 2.5z"/></svg>