<svg xmlns="http://www.w3.org/2000/svg" width="21" height="21" viewBox="0 0 21 21">
    <path fill="#FFF" fill-rule="evenodd" d="M16.917 15.453h-2.603V9.82c0-.66-.189-1.122-1-1.122-1.344 0-1.602 1.122-1.602 1.122v5.632H9.109v-9.11h2.603v.871a4.353 4.353 0 0 1 2.602-.869c.843 0 2.603.505 2.603 3.555v5.553zM6.587 5.786a1.22 1.22 0 1 1 0-2.44 1.22 1.22 0 0 1 0 2.44zm-1.382 9.667h2.603v-9.11H5.205v9.11zM10.41 0C4.661 0 0 4.661 0 10.41c0 5.75 4.661 10.41 10.41 10.41 5.75 0 10.41-4.66 10.41-10.41S16.16 0 10.41 0z"/>
</svg>
