<?xml version="1.0" standalone="no"?>
<!DOCTYPE svg PUBLIC "-//W3C//DTD SVG 20010904//EN"
 "http://www.w3.org/TR/2001/REC-SVG-20010904/DTD/svg10.dtd">
<svg version="1.0" xmlns="http://www.w3.org/2000/svg"
 width="376.000000pt" height="376.000000pt" viewBox="0 0 376.000000 376.000000"
 preserveAspectRatio="xMidYMid meet">
<metadata>
Created by potrace 1.11, written by Peter Selinger 2001-2013
</metadata>
<g transform="translate(0.000000,376.000000) scale(0.100000,-0.100000)"
fill="#000000" stroke="none">
<path d="M2015 3175 c-27 -8 -68 -17 -89 -20 -22 -3 -60 -10 -85 -16 -25 -6
-66 -12 -91 -15 -25 -3 -61 -8 -80 -13 -19 -5 -48 -9 -65 -10 -16 0 -41 -3
-55 -6 -14 -3 -47 -8 -75 -10 -27 -3 -70 -8 -95 -12 -25 -3 -61 -7 -80 -9
-106 -9 -539 -42 -565 -43 -16 0 -70 -3 -120 -6 -49 -2 -96 -5 -102 -5 -7 -1
-34 0 -59 0 -153 5 -179 -185 -74 -544 63 -217 228 -632 374 -940 31 -65 56
-120 56 -123 0 -15 383 -769 399 -786 11 -11 38 2 45 21 8 25 29 56 44 65 6 4
12 14 12 21 0 8 7 17 16 20 9 4 14 13 10 21 -3 9 0 15 9 15 8 0 15 5 15 10 0
18 4 25 24 42 12 10 18 17 14 18 -5 0 1 9 12 20 12 12 18 25 15 30 -4 6 1 10
9 10 9 0 16 5 16 10 0 20 3 25 22 38 10 7 16 18 13 23 -4 5 -1 9 5 9 6 0 15
11 20 25 5 14 14 25 20 25 5 0 10 9 10 20 0 11 6 19 13 18 15 -4 14 49 -2 147
-31 186 -42 276 -57 485 -8 116 -11 367 -4 409 l5 34 176 -184 c97 -101 202
-213 235 -249 32 -36 68 -74 79 -86 11 -11 54 -58 95 -104 41 -46 80 -88 85
-94 12 -12 324 -364 364 -411 15 -16 82 -95 151 -175 69 -80 135 -156 147
-169 12 -14 41 -48 65 -77 24 -29 51 -53 61 -54 44 -1 26 34 -89 167 -149 174
-515 593 -570 653 -22 25 -67 74 -100 110 -32 36 -99 110 -149 164 -49 55 -98
108 -108 119 -20 24 -268 285 -376 396 -44 45 -70 80 -66 88 3 8 5 26 5 39 0
13 4 24 8 24 8 0 431 -421 502 -500 18 -19 64 -69 104 -110 80 -85 268 -288
336 -365 25 -27 47 -52 50 -55 3 -3 46 -50 95 -105 49 -55 94 -105 100 -111 5
-6 19 -22 30 -35 12 -13 43 -49 69 -79 27 -30 76 -86 110 -124 82 -93 87 -97
100 -93 36 12 14 46 -134 211 -51 57 -49 54 -130 146 -76 86 -125 140 -170
190 -14 15 -41 45 -60 66 -48 53 -229 252 -260 284 -14 15 -90 96 -170 181
-79 85 -239 249 -355 364 -205 205 -210 211 -207 248 2 20 6 37 10 37 30 -1
610 -574 947 -935 159 -170 171 -183 215 -231 19 -22 59 -66 90 -99 192 -211
226 -249 233 -261 10 -18 31 -18 46 0 10 12 -12 42 -121 163 -73 81 -154 171
-179 198 -26 28 -56 60 -66 71 -10 12 -70 77 -133 144 -352 377 -677 701 -978
976 -38 35 -42 42 -36 72 4 17 10 32 13 32 12 0 234 -192 416 -360 92 -86 593
-586 720 -720 150 -159 317 -339 344 -371 24 -29 54 -38 66 -19 11 17 22 4
-259 305 -167 179 -801 814 -926 927 -52 47 -147 129 -210 183 -150 127 -140
115 -125 148 l12 28 119 -92 c191 -147 337 -275 628 -549 114 -108 510 -504
652 -654 89 -94 125 -125 137 -120 9 3 17 13 17 20 0 19 -104 128 -455 479
-425 426 -714 689 -968 880 -58 44 -106 85 -107 91 0 5 6 17 13 26 11 15 18
13 67 -20 233 -154 540 -406 844 -694 39 -36 85 -78 101 -93 17 -15 139 -135
272 -267 236 -234 273 -263 273 -212 0 22 -404 423 -690 684 -57 52 -111 102
-120 110 -133 124 -448 376 -597 477 -62 42 -113 79 -113 82 0 3 5 13 10 21 8
13 17 11 65 -14 81 -42 271 -168 415 -276 69 -51 127 -96 130 -99 3 -4 43 -38
90 -76 97 -80 123 -102 154 -130 13 -11 56 -49 97 -85 41 -36 105 -94 144
-130 38 -35 75 -69 81 -75 6 -5 84 -80 174 -165 105 -100 170 -155 184 -155
15 0 20 5 18 20 -2 11 -8 22 -12 25 -5 3 -66 61 -137 130 -71 69 -178 170
-238 225 -60 55 -116 107 -125 115 -9 8 -49 44 -90 80 -41 36 -77 67 -80 70
-3 3 -59 51 -125 106 -211 175 -430 334 -600 434 -49 30 -92 55 -94 57 -3 2 2
10 10 18 27 27 311 -131 569 -315 100 -72 371 -282 406 -315 6 -5 37 -32 69
-60 33 -27 84 -72 115 -100 123 -110 236 -213 289 -262 61 -57 60 -57 80 -44
26 16 22 21 -264 282 -168 154 -504 428 -671 546 -143 103 -310 206 -427 264
-118 59 -111 55 -103 68 13 20 232 -69 411 -168 227 -126 669 -455 955 -711
87 -78 121 -102 135 -96 28 10 15 33 -57 97 -40 35 -75 66 -78 70 -3 3 -72 61
-155 130 -256 213 -496 387 -706 515 -109 66 -311 165 -389 191 -106 35 -11
26 119 -12 303 -87 690 -322 1161 -704 124 -100 160 -119 160 -82 0 21 -158
153 -389 325 -263 196 -522 355 -708 436 -95 41 -207 80 -230 80 -7 0 -13 4
-13 8 0 5 30 5 68 0 298 -39 672 -231 1165 -595 105 -79 130 -93 142 -83 8 7
15 16 15 21 0 12 -235 186 -400 296 -291 194 -527 313 -755 380 l-80 23 81 -4
c251 -14 608 -169 1022 -444 135 -90 172 -104 172 -68 0 15 -136 111 -315 221
-215 133 -470 252 -643 299 -134 37 -182 44 -310 44 -74 1 -136 -4 -167 -13z
m-268 -141 c-3 -3 -12 -4 -19 -1 -8 3 -5 6 6 6 11 1 17 -2 13 -5z m-147 -18
c0 -11 -19 -15 -25 -6 -3 5 1 10 9 10 9 0 16 -2 16 -4z m-145 -26 c3 -5 -1
-10 -9 -10 -9 0 -16 5 -16 10 0 6 4 10 9 10 6 0 13 -4 16 -10z m235 -10 c0
-14 -15 -19 -29 -10 -17 10 -5 31 14 23 8 -3 15 -9 15 -13z m-386 -6 c9 -3 14
-10 11 -15 -7 -10 -35 0 -35 12 0 11 3 11 24 3z m239 -10 c3 -3 3 -12 0 -20
-4 -10 -10 -11 -24 -3 -11 5 -17 14 -14 20 7 10 28 12 38 3z m-1083 -8 c0 -2
-7 -21 -16 -42 -12 -27 -16 -67 -16 -134 1 -137 35 -291 122 -560 39 -123 158
-426 242 -619 99 -228 110 -255 77 -196 -78 141 -322 718 -397 940 -112 331
-137 552 -69 600 19 13 57 21 57 11z m360 -6 c0 -5 -7 -7 -15 -4 -8 4 -15 8
-15 10 0 2 7 4 15 4 8 0 15 -4 15 -10z m360 0 c0 -5 -9 -10 -20 -10 -11 0 -20
5 -20 10 0 6 9 10 20 10 11 0 20 -4 20 -10z m-630 -10 c18 -10 18 -13 4 -53
-16 -46 -22 -184 -10 -257 4 -25 10 -58 12 -75 8 -45 42 -195 54 -235 6 -19
13 -46 16 -59 3 -13 11 -39 19 -57 8 -19 12 -34 10 -34 -4 0 43 -136 115 -335
23 -65 87 -226 134 -339 21 -48 36 -90 34 -92 -4 -4 -26 45 -140 316 -100 237
-226 576 -243 650 -2 8 -12 49 -24 90 -58 215 -69 375 -32 449 23 45 24 45 51
31z m140 0 c0 -13 -11 -13 -30 0 -12 8 -11 10 8 10 12 0 22 -4 22 -10z m355
-21 c-4 -5 -14 -5 -26 1 -11 6 -17 15 -14 21 4 5 14 5 26 -1 11 -6 17 -15 14
-21z m354 22 c13 -8 8 -31 -7 -31 -17 1 -34 19 -28 29 9 13 16 14 35 2z m241
-31 c0 -15 -19 -22 -40 -15 -16 5 -18 10 -10 26 9 15 15 17 30 9 11 -6 20 -15
20 -20z m-731 11 c24 -15 3 -32 -24 -19 -13 6 -22 15 -19 19 7 11 25 11 43 0z
m350 0 c8 -5 11 -16 8 -25 -5 -14 -11 -15 -27 -6 -21 11 -25 22 -13 33 8 9 15
9 32 -2z m-473 -23 c4 -5 2 -14 -3 -19 -10 -10 -56 18 -48 31 6 10 43 1 51
-12z m354 -13 c0 -2 -3 -10 -6 -19 -5 -14 -8 -14 -30 1 -19 12 -22 19 -13 29
8 10 16 11 30 3 10 -5 19 -11 19 -14z m360 0 c0 -2 -3 -10 -6 -19 -5 -12 -10
-13 -30 -4 -27 13 -29 19 -12 36 7 7 17 8 30 1 10 -5 18 -11 18 -14z m-851 3
c15 -9 17 -17 10 -42 -9 -31 -13 -204 -5 -261 36 -277 152 -677 315 -1084 23
-57 40 -105 38 -107 -2 -3 -13 19 -25 48 -11 29 -53 132 -92 228 -129 318
-238 659 -279 877 -22 112 -27 255 -11 312 11 43 19 48 49 29z m361 -34 c0
-22 -20 -27 -40 -9 -27 24 -16 47 16 33 13 -6 24 -17 24 -24z m343 13 c15 -10
16 -15 5 -30 -12 -15 -16 -16 -32 -4 -12 9 -17 20 -13 31 8 19 17 20 40 3z
m-468 -44 c-2 -10 -4 -22 -4 -26 -2 -19 -50 30 -51 51 0 22 1 22 29 7 19 -9
28 -21 26 -32z m348 -13 c-6 -24 -12 -25 -41 -4 -18 12 -20 19 -12 35 10 18
12 18 34 4 16 -11 22 -22 19 -35z m346 41 c10 -6 11 -16 4 -36 l-9 -27 -24 20
c-21 17 -22 22 -11 36 15 18 21 19 40 7z m-836 -26 c21 -13 22 -20 17 -77 -7
-67 -5 -163 5 -238 4 -25 9 -61 11 -80 9 -69 36 -196 55 -268 11 -40 22 -82
24 -92 14 -72 133 -446 189 -594 14 -38 25 -71 22 -73 -6 -7 -219 570 -231
628 -2 8 -17 62 -34 120 -17 57 -33 113 -35 124 -60 279 -57 256 -63 397 -5
108 0 168 13 168 2 0 15 -7 27 -15z m350 -13 c10 -10 14 -27 11 -39 -6 -21 -7
-21 -30 -6 -23 15 -31 42 -17 56 10 11 19 8 36 -11z m349 4 c19 -14 14 -56 -7
-56 -20 0 -37 27 -30 50 7 23 13 24 37 6z m-475 -35 c15 -12 20 -25 16 -40 -6
-24 -11 -25 -35 -8 -16 13 -22 29 -19 55 1 17 12 15 38 -7z m357 -9 c6 -10 -4
-52 -13 -52 -3 0 -14 7 -25 15 -13 10 -17 21 -12 40 5 21 9 24 26 15 10 -5 21
-14 24 -18z m-479 -20 c18 -15 20 -30 20 -132 1 -107 8 -213 20 -285 36 -210
108 -501 175 -710 49 -150 55 -172 48 -165 -9 8 -106 289 -149 432 -43 143
-94 334 -103 389 -3 19 -8 45 -11 59 -31 131 -50 431 -27 430 4 -1 16 -8 27
-18z m688 4 c13 -10 16 -21 11 -40 -7 -30 -13 -31 -39 -13 -13 10 -16 21 -11
40 7 30 13 32 39 13z m-352 -6 c13 -8 19 -20 17 -40 -3 -35 -8 -36 -37 -12
-15 12 -19 24 -15 40 7 25 8 26 35 12z m-110 -47 c10 -8 14 -24 11 -43 -5 -35
-9 -36 -37 -10 -15 15 -20 29 -17 50 4 30 11 31 43 3z m332 13 c13 -10 15 -21
11 -45 -8 -37 -8 -37 -35 -10 -14 14 -19 28 -15 45 7 27 14 29 39 10z m-434
-174 c0 -99 5 -182 16 -242 2 -14 7 -50 10 -80 14 -121 98 -484 155 -670 27
-90 24 -100 -6 -15 -91 267 -183 628 -209 820 -4 28 -9 61 -11 75 -8 50 -14
224 -8 242 6 19 7 19 29 -2 22 -20 23 -30 24 -128z m315 129 c12 -13 15 -27
10 -45 -7 -30 -16 -32 -38 -10 -17 16 -20 33 -10 58 8 21 17 20 38 -3z m210
-24 c14 -10 17 -21 11 -45 -8 -37 -15 -39 -39 -13 -12 13 -15 27 -10 45 7 30
13 31 38 13z m-316 -66 c3 -40 2 -42 -18 -31 -25 14 -38 45 -32 77 4 22 6 23
26 10 15 -10 22 -27 24 -56z m207 9 c3 -5 3 -26 -1 -46 l-7 -36 -22 24 c-18
17 -22 31 -18 55 4 28 8 31 24 23 10 -6 21 -15 24 -20z m-315 -115 c2 -185 35
-465 70 -605 5 -19 12 -51 15 -70 3 -19 8 -43 11 -52 3 -9 6 -25 8 -35 2 -10
15 -63 30 -118 14 -55 28 -111 31 -125 l6 -25 -11 25 c-40 91 -165 608 -186
765 -3 28 -8 59 -10 70 -3 11 -7 83 -11 159 l-6 139 26 -19 c25 -18 26 -24 27
-109z m203 12 l-6 -38 -23 21 c-16 16 -21 31 -19 53 2 18 4 36 4 42 1 5 12 -2
26 -15 21 -21 24 -31 18 -63z m202 -17 c-4 -19 -9 -37 -11 -39 -10 -10 -38 46
-35 69 5 38 11 43 33 23 15 -14 18 -25 13 -53z m-306 -124 c1 -66 3 -130 5
-141 2 -11 7 -56 11 -100 9 -108 12 -131 51 -360 3 -16 16 -79 29 -139 14 -60
23 -111 22 -113 -11 -10 -119 470 -132 582 -3 27 -18 132 -21 150 -2 11 -7 81
-10 155 l-6 135 25 -24 c25 -23 26 -28 26 -145z m185 115 c13 -14 15 -28 10
-60 l-7 -41 -18 21 c-19 22 -27 99 -11 99 5 0 16 -8 26 -19z m-89 -242 c4
-152 8 -219 20 -309 2 -19 7 -60 10 -90 7 -58 40 -262 51 -308 4 -15 4 -24 0
-21 -7 7 -65 282 -72 344 -3 22 -7 46 -9 53 -12 32 -36 269 -41 397 l-6 140
22 -21 c21 -20 22 -32 25 -185z m185 146 c4 -12 5 -37 1 -55 -6 -32 -7 -32
-24 -15 -22 22 -22 106 1 98 7 -3 17 -16 22 -28z m-95 -276 c3 -191 7 -249 21
-358 3 -24 8 -65 10 -90 3 -25 7 -55 10 -66 4 -15 3 -17 -4 -5 -8 12 -22 83
-27 135 -1 6 -5 30 -9 55 -12 72 -15 91 -21 165 -4 39 -8 82 -11 96 -2 14 -6
91 -9 170 l-5 143 20 -20 c19 -19 21 -35 25 -225z m81 -82 c0 -117 4 -264 8
-327 9 -128 2 -149 -9 -27 -3 43 -8 88 -10 100 -15 93 -29 463 -18 480 3 5 10
4 17 -3 7 -7 11 -79 12 -223z m-39 -479 c-3 -8 -6 -5 -6 6 -1 11 2 17 5 13 3
-3 4 -12 1 -19z m60 -10 c-3 -8 -6 -5 -6 6 -1 11 2 17 5 13 3 -3 4 -12 1 -19z
m-160 -70 c-3 -8 -6 -5 -6 6 -1 11 2 17 5 13 3 -3 4 -12 1 -19z m-107 -23 c0
-5 -5 -3 -10 5 -5 8 -10 20 -10 25 0 6 5 3 10 -5 5 -8 10 -19 10 -25z m-60
-10 c0 -5 -5 -3 -10 5 -5 8 -10 20 -10 25 0 6 5 3 10 -5 5 -8 10 -19 10 -25z
m-172 -50 c-3 -3 -9 2 -12 12 -6 14 -5 15 5 6 7 -7 10 -15 7 -18z m66 -1 c3
-8 2 -12 -4 -9 -6 3 -10 10 -10 16 0 14 7 11 14 -7z m-115 -34 c11 -24 11 -24
-3 -6 -9 11 -16 24 -16 30 0 12 5 7 19 -24z m81 -35 c0 -5 -5 -3 -10 5 -5 8
-10 20 -10 25 0 6 5 3 10 -5 5 -8 10 -19 10 -25z"/>
</g>
</svg>
